<svg width="722" height="801" viewBox="0 0 722 801" fill="none" xmlns="http://www.w3.org/2000/svg">
<rect y="0.357422" width="721.928" height="800.643" rx="207" fill="#F7D8BE"/>
<circle cx="115.823" cy="281.482" r="41.7269" fill="#EBB68A" stroke="#693A18" stroke-width="20"/>
<circle cx="594.859" cy="281.482" r="41.7269" fill="#EBB68A" stroke="#693A18" stroke-width="20"/>
<path d="M442.173 138.333C494.373 92.4515 575.961 131.471 573.29 200.653L573.254 201.468L569.771 274.011C568.967 290.748 571.274 307.484 576.571 323.371L577.093 324.905L582.941 341.772C602.879 399.269 560.182 459.267 499.326 459.267H216.43C157.192 459.267 114.818 402.262 131.551 345.71L131.957 344.374L136.076 331.189C141.403 314.139 143.306 296.209 141.679 278.431L141.51 276.712L135.308 217.301C127.329 140.868 214.494 92.0501 275.446 138.376L276.162 138.925L281.796 143.291C329.162 179.996 395.76 178.235 441.105 139.26L442.173 138.333Z" fill="#E7C6A9" stroke="#693A18" stroke-width="47"/>
<circle cx="248.514" cy="270.237" r="48.3534" fill="#633412"/>
<circle cx="264.819" cy="253.932" r="12.9317" fill="#D9D9D9"/>
<circle cx="227.149" cy="288.229" r="6.74699" fill="#D9D9D9"/>
<circle cx="473.414" cy="266.863" r="48.3534" fill="#633412"/>
<circle cx="489.719" cy="250.558" r="12.9317" fill="#D9D9D9"/>
<circle cx="452.048" cy="284.855" r="6.74699" fill="#D9D9D9"/>
<path d="M359.277 296.1C377.598 296.1 392.45 304.659 392.45 315.217C392.45 324.828 380.142 332.781 364.113 334.13C364.172 334.471 364.194 334.823 364.171 335.181L364.15 335.413L364.079 336.066C363.377 342.918 363.737 352.707 366.792 360.675C368.351 364.741 370.523 368.105 373.386 370.437C376.18 372.714 379.886 374.22 384.981 374.22C396.068 374.219 401.493 370.604 404.182 366.983C407.026 363.151 407.475 358.424 406.966 355.299C406.566 352.846 408.231 350.533 410.684 350.134C413.136 349.734 415.449 351.399 415.849 353.851C416.651 358.774 416.032 366.12 411.408 372.347C406.628 378.786 398.184 383.219 384.981 383.22C377.933 383.22 372.192 381.072 367.702 377.415C363.744 374.191 360.967 369.962 359.035 365.479C357.103 369.962 354.326 374.191 350.368 377.415C345.878 381.072 340.137 383.219 333.089 383.22C319.887 383.22 311.442 378.786 306.662 372.347C302.039 366.12 301.419 358.774 302.222 353.851C302.621 351.399 304.934 349.734 307.387 350.134C309.839 350.534 311.504 352.846 311.104 355.299C310.595 358.424 311.044 363.151 313.889 366.983C316.577 370.604 322.003 374.22 333.089 374.22C338.185 374.219 341.89 372.714 344.685 370.437C347.548 368.105 349.72 364.741 351.278 360.675C354.333 352.707 354.693 342.918 353.991 336.066L353.92 335.413L353.899 335.181C353.875 334.808 353.897 334.442 353.962 334.088C338.168 332.622 326.104 324.732 326.104 315.217C326.105 304.659 340.957 296.1 359.277 296.1Z" fill="#633412"/>
<g filter="url(#filter0_d_1_52)">
<path d="M88.8353 461.402H646.586V469.875C646.586 497.49 624.201 519.876 596.586 519.876H138.835C111.221 519.876 88.8353 497.49 88.8353 469.875V461.402Z" fill="#1E1E1E"/>
</g>
<defs>
<filter id="filter0_d_1_52" x="84.8353" y="461.402" width="565.751" height="66.4739" filterUnits="userSpaceOnUse" color-interpolation-filters="sRGB">
<feFlood flood-opacity="0" result="BackgroundImageFix"/>
<feColorMatrix in="SourceAlpha" type="matrix" values="0 0 0 0 0 0 0 0 0 0 0 0 0 0 0 0 0 0 127 0" result="hardAlpha"/>
<feOffset dy="4"/>
<feGaussianBlur stdDeviation="2"/>
<feComposite in2="hardAlpha" operator="out"/>
<feColorMatrix type="matrix" values="0 0 0 0 0.847059 0 0 0 0 0.74902 0 0 0 0 0.67451 0 0 0 1 0"/>
<feBlend mode="normal" in2="BackgroundImageFix" result="effect1_dropShadow_1_52"/>
<feBlend mode="normal" in="SourceGraphic" in2="effect1_dropShadow_1_52" result="shape"/>
</filter>
</defs>
</svg>
